<svg width="1280" height="720" xmlns="http://www.w3.org/2000/svg" xmlns:xlink="http://www.w3.org/1999/xlink" overflow="hidden"><g><rect x="0" y="0" width="1280" height="720" fill="#FFFFFF"/><path d="M630 36C630 25.5066 638.507 17 649 17 659.493 17 668 25.5066 668 36 668 46.4934 659.493 55 649 55 638.507 55 630 46.4934 630 36Z" stroke="#000000" stroke-width="2" stroke-miterlimit="8" fill-rule="evenodd"/><path d="M412 179.5C412 174.253 416.253 170 421.5 170L516.5 170C521.747 170 526 174.253 526 179.5L526 217.5C526 222.747 521.747 227 516.5 227L421.5 227C416.253 227 412 222.747 412 217.5Z" stroke="#000000" stroke-width="2" stroke-miterlimit="8" fill="#FFFFFF" fill-rule="evenodd"/><text font-family="Times New Roman,Times New Roman_MSFontService,sans-serif" font-weight="700" font-size="12" transform="translate(436.346 189)">Connect and</text><text font-family="Times New Roman,Times New Roman_MSFontService,sans-serif" font-weight="700" font-size="12" transform="translate(436.513 203)">Save Data to</text><text font-family="Times New Roman,Times New Roman_MSFontService,sans-serif" font-weight="700" font-size="12" transform="translate(445.179 217)">Database</text><path d="M412 103.5C412 98.2534 416.253 94 421.5 94L516.5 94C521.747 94 526 98.2534 526 103.5L526 141.5C526 146.747 521.747 151 516.5 151L421.5 151C416.253 151 412 146.747 412 141.5Z" stroke="#000000" stroke-width="2" stroke-miterlimit="8" fill="#FFFFFF" fill-rule="evenodd"/><text font-family="Times New Roman,Times New Roman_MSFontService,sans-serif" font-weight="700" font-size="12" transform="translate(435.346 113)">Receive Data</text><text font-family="Times New Roman,Times New Roman_MSFontService,sans-serif" font-weight="700" font-size="12" transform="translate(441.679 127)">from Edge</text><text font-family="Times New Roman,Times New Roman_MSFontService,sans-serif" font-weight="700" font-size="12" transform="translate(449.513 141)">Devices</text><path d="M765 104.5C765 99.2534 769.253 95 774.5 95L869.5 95C874.747 95 879 99.2534 879 104.5L879 142.5C879 147.747 874.747 152 869.5 152L774.5 152C769.253 152 765 147.747 765 142.5Z" stroke="#000000" stroke-width="2" stroke-miterlimit="8" fill="#FFFFFF" fill-rule="evenodd"/><text font-family="Times New Roman,Times New Roman_MSFontService,sans-serif" font-weight="700" font-size="12" transform="translate(795.475 121)">Start Web</text><text font-family="Times New Roman,Times New Roman_MSFontService,sans-serif" font-weight="700" font-size="12" transform="translate(804.975 135)">Server</text><path d="M650 55 650 64.9813 648 64.9813 648 55ZM653 63.648 649 71.648 645 63.648Z"/><path d="M765 180.333C765 175.179 769.179 171 774.333 171L869.667 171C874.821 171 879 175.179 879 180.333L879 217.667C879 222.821 874.821 227 869.667 227L774.333 227C769.179 227 765 222.821 765 217.667Z" stroke="#000000" stroke-width="2" stroke-miterlimit="8" fill="#FFFFFF" fill-rule="evenodd"/><text font-family="Times New Roman,Times New Roman_MSFontService,sans-serif" font-weight="700" font-size="12" transform="translate(788.808 189)">Display Data</text><text font-family="Times New Roman,Times New Roman_MSFontService,sans-serif" font-weight="700" font-size="12" transform="translate(787.475 203)">Fetched from</text><text font-family="Times New Roman,Times New Roman_MSFontService,sans-serif" font-weight="700" font-size="12" transform="translate(798.308 217)">Database</text><path d="M592 278.5C592 273.253 596.253 269 601.5 269L696.5 269C701.747 269 706 273.253 706 278.5L706 316.5C706 321.747 701.747 326 696.5 326L601.5 326C596.253 326 592 321.747 592 316.5Z" stroke="#000000" stroke-width="2" stroke-miterlimit="8" fill="#FFFFFF" fill-rule="evenodd"/><text font-family="Times New Roman,Times New Roman_MSFontService,sans-serif" font-weight="700" font-size="12" transform="translate(612.149 295)">Wait For User</text><text font-family="Times New Roman,Times New Roman_MSFontService,sans-serif" font-weight="700" font-size="12" transform="translate(634.816 309)">Input</text><path d="M438 350 649.307 350" stroke="#000000" stroke-width="2" stroke-miterlimit="8" fill="none" fill-rule="evenodd"/><path d="M470 350 470 378.615 468 378.615 468 350ZM473 377.282 469 385.282 465 377.282Z"/><path d="M823 350 823 378.615 821 378.615 821 350ZM826 377.282 822 385.282 818 377.282Z"/><path d="M649 350 860.307 350" stroke="#000000" stroke-width="2" stroke-miterlimit="8" fill="none" fill-rule="evenodd"/><path d="M650 326 650 344.211 648 344.211 648 326ZM653 342.877 649 350.877 645 342.877Z"/><path d="M450 404 469 385 488 404 469 423Z" stroke="#000000" stroke-width="2" stroke-miterlimit="8" fill="#FFFFFF" fill-rule="evenodd"/><path d="M470 423 470 461.515 468 461.515 468 423ZM473 460.181 469 468.181 465 460.181Z"/><text font-family="Times New Roman,Times New Roman_MSFontService,sans-serif" font-weight="400" font-size="12" transform="translate(478.446 433)">Count</text><text font-family="Times New Roman,Times New Roman_MSFontService,sans-serif" font-weight="400" font-size="12" transform="translate(478.446 447)">button</text><text font-family="Times New Roman,Times New Roman_MSFontService,sans-serif" font-weight="400" font-size="12" transform="translate(478.446 461)">pressed</text><path d="M412 536.333C412 531.179 416.179 527 421.333 527L516.667 527C521.821 527 526 531.179 526 536.333L526 573.667C526 578.821 521.821 583 516.667 583L421.333 583C416.179 583 412 578.821 412 573.667Z" stroke="#000000" stroke-width="2" stroke-miterlimit="8" fill="#FFFFFF" fill-rule="evenodd"/><text font-family="Times New Roman,Times New Roman_MSFontService,sans-serif" font-weight="700" font-size="12" transform="translate(440.012 546)">Fetch Door</text><text font-family="Times New Roman,Times New Roman_MSFontService,sans-serif" font-weight="700" font-size="12" transform="translate(438.679 560)">Status from</text><text font-family="Times New Roman,Times New Roman_MSFontService,sans-serif" font-weight="700" font-size="12" transform="translate(445.179 574)">Database</text><path d="M217 384.5C217 379.253 221.253 375 226.5 375L321.5 375C326.747 375 331 379.253 331 384.5L331 422.5C331 427.747 326.747 432 321.5 432L226.5 432C221.253 432 217 427.747 217 422.5Z" stroke="#000000" stroke-width="2" stroke-miterlimit="8" fill="#FFFFFF" fill-rule="evenodd"/><text font-family="Times New Roman,Times New Roman_MSFontService,sans-serif" font-weight="700" font-size="12" transform="translate(241.011 387)">Count When</text><text font-family="Times New Roman,Times New Roman_MSFontService,sans-serif" font-weight="700" font-size="12" transform="translate(239.678 401)">Door Change</text><text font-family="Times New Roman,Times New Roman_MSFontService,sans-serif" font-weight="700" font-size="12" transform="translate(239.178 415)">from Close to</text><text font-family="Times New Roman,Times New Roman_MSFontService,sans-serif" font-weight="700" font-size="12" transform="translate(259.844 430)">Open</text><path d="M450 487 469 468 488 487 469 506Z" stroke="#000000" stroke-width="2" stroke-miterlimit="8" fill="#FFFFFF" fill-rule="evenodd"/><text font-family="Times New Roman,Times New Roman_MSFontService,sans-serif" font-weight="400" font-size="12" transform="translate(480.737 516)">Start AND end date chosen</text><text font-family="Times New Roman,Times New Roman_MSFontService,sans-serif" font-weight="400" font-size="12" transform="translate(411.167 420)">Count</text><text font-family="Times New Roman,Times New Roman_MSFontService,sans-serif" font-weight="400" font-size="12" transform="translate(411.167 434)">button</text><text font-family="Times New Roman,Times New Roman_MSFontService,sans-serif" font-weight="400" font-size="12" transform="translate(411.167 448)">NOT</text><text font-family="Times New Roman,Times New Roman_MSFontService,sans-serif" font-weight="400" font-size="12" transform="translate(411.167 463)">pressed</text><text font-family="Times New Roman,Times New Roman_MSFontService,sans-serif" font-weight="400" font-size="12" transform="translate(335.166 454)">No Start</text><text font-family="Times New Roman,Times New Roman_MSFontService,sans-serif" font-weight="400" font-size="12" transform="translate(335.166 468)">AND/OR</text><text font-family="Times New Roman,Times New Roman_MSFontService,sans-serif" font-weight="400" font-size="12" transform="translate(335.166 482)">end date</text><text font-family="Times New Roman,Times New Roman_MSFontService,sans-serif" font-weight="400" font-size="12" transform="translate(335.166 497)">chosen</text><path d="M389 384.557 389 296 586.269 296 586.269 298 390 298 391 297 391 384.557ZM584.935 293 592.935 297 584.935 301Z"/><path d="M371 404 389.5 385 408 404 389.5 423Z" stroke="#000000" stroke-width="2" stroke-miterlimit="8" fill="#FFFFFF" fill-rule="evenodd"/><path d="M450.427 488.079 389 488.079 389 429.667 391 429.667 391 487.079 390 486.079 450.427 486.079ZM386 431 390 423 394 431Z"/><path d="M331 403 364.42 403 364.42 405 331 405ZM363.086 400 371.086 404 363.086 408Z"/><path d="M412.308 556.055 273 556.055 273 438.667 275 438.667 275 555.055 274 554.055 412.308 554.055ZM270 440 274 432 278 440Z"/><path d="M470 506 470 520.515 468 520.515 468 506ZM473 519.181 469 527.181 465 519.181Z"/><path d="M2.52802e-06-1 34.8626-0.999912 34.8626 1.00009-2.52802e-06 1ZM33.5292-3.99991 41.5292 0.000104987 33.5292 4.00008Z" transform="matrix(-1 0 0 1 449.529 404)"/><path d="M803 403 822 384 841 403 822 422Z" stroke="#000000" stroke-width="2" stroke-miterlimit="8" fill="#FFFFFF" fill-rule="evenodd"/><path d="M438 71 649.307 71.0001" stroke="#000000" stroke-width="2" stroke-miterlimit="8" fill="none" fill-rule="evenodd"/><path d="M470 71 470 87.1298 468 87.1298 468 71ZM473 85.7964 469 93.7964 465 85.7964Z"/><path d="M823 71 823 87.1298 821 87.1298 821 71ZM826 85.7964 822 93.7964 818 85.7964Z"/><path d="M649 71 860.307 71.0001" stroke="#000000" stroke-width="2" stroke-miterlimit="8" fill="none" fill-rule="evenodd"/><path d="M470 151 470 163.531 468 163.531 468 151ZM473 162.197 469 170.197 465 162.197Z"/><path d="M823 152 823 163.696 821 163.696 821 152ZM826 162.363 822 170.363 818 162.363Z"/><path d="M438 248 649.307 248" stroke="#000000" stroke-width="2" stroke-miterlimit="8" fill="none" fill-rule="evenodd"/><path d="M470 228 470 241.157 468 241.157 468 228ZM473 239.824 469 247.824 465 239.824Z"/><path d="M823 228 823 241.157 821 241.157 821 228ZM826 239.824 822 247.824 818 239.824Z"/><path d="M649 248 860.307 248" stroke="#000000" stroke-width="2" stroke-miterlimit="8" fill="none" fill-rule="evenodd"/><path d="M650 249 650 262.157 648 262.157 648 249ZM653 260.824 649 268.824 645 260.824Z"/><text font-family="Times New Roman,Times New Roman_MSFontService,sans-serif" font-weight="400" font-size="12" transform="translate(713.424 378)">Toggle control</text><text font-family="Times New Roman,Times New Roman_MSFontService,sans-serif" font-weight="400" font-size="12" transform="translate(713.424 392)">mode button pressed</text><path d="M802 488 821 469 840 488 821 507Z" stroke="#000000" stroke-width="2" stroke-miterlimit="8" fill="#FFFFFF" fill-rule="evenodd"/><path d="M950 655 969 636 988 655 969 674Z" stroke="#000000" stroke-width="2" stroke-miterlimit="8" fill="#FFFFFF" fill-rule="evenodd"/><path d="M895 669.606 895 573" stroke="#000000" stroke-width="2" stroke-miterlimit="8" fill="none" fill-rule="evenodd"/><path d="M895 654 945.203 654 945.203 656 895 656ZM943.87 651 951.87 655 943.87 659Z"/><path d="M895 493 945.203 493 945.203 495 895 495ZM943.87 490 951.87 494 943.87 498Z"/><path d="M895 572.606 895 476" stroke="#000000" stroke-width="2" stroke-miterlimit="8" fill="none" fill-rule="evenodd"/><text font-family="Times New Roman,Times New Roman_MSFontService,sans-serif" font-weight="400" font-size="12" transform="translate(829.936 527)">Manual</text><text font-family="Times New Roman,Times New Roman_MSFontService,sans-serif" font-weight="400" font-size="12" transform="translate(829.936 541)">control</text><text font-family="Times New Roman,Times New Roman_MSFontService,sans-serif" font-weight="400" font-size="12" transform="translate(829.936 555)">currently</text><path d="M0.0152427-0.999884 38.9061-0.407014 38.8756 1.59275-0.0152427 0.999884ZM37.6186-3.42699 45.5567 0.694488 37.4967 4.57208Z" transform="matrix(1 0 0 -1 1078 493.694)"/><text font-family="Times New Roman,Times New Roman_MSFontService,sans-serif" font-weight="400" font-size="12" transform="translate(1081.27 512)">Door</text><text font-family="Times New Roman,Times New Roman_MSFontService,sans-serif" font-weight="400" font-size="12" transform="translate(1081.27 526)">currently</text><text font-family="Times New Roman,Times New Roman_MSFontService,sans-serif" font-weight="400" font-size="12" transform="translate(1081.27 540)">open</text><path d="M952 493 971 474 990 493 971 512Z" stroke="#000000" stroke-width="2" stroke-miterlimit="8" fill="#FFFFFF" fill-rule="evenodd"/><path d="M1124 473.5C1124 468.253 1128.25 464 1133.5 464L1227.5 464C1232.75 464 1237 468.253 1237 473.5L1237 511.5C1237 516.747 1232.75 521 1227.5 521L1133.5 521C1128.25 521 1124 516.747 1124 511.5Z" stroke="#000000" stroke-width="2" stroke-miterlimit="8" fill="#FFFFFF" fill-rule="evenodd"/><text font-family="Times New Roman,Times New Roman_MSFontService,sans-serif" font-weight="700" font-size="12" transform="translate(1137.71 483)">Send Close Door</text><text font-family="Times New Roman,Times New Roman_MSFontService,sans-serif" font-weight="700" font-size="12" transform="translate(1146.88 497)">Command to</text><text font-family="Times New Roman,Times New Roman_MSFontService,sans-serif" font-weight="700" font-size="12" transform="translate(1146.55 511)">Edge Devices</text><path d="M0-1 68.0409-1 68.0409 65.9263 66.0409 65.9263 66.0409 0 67.0409 1 0 1ZM71.0409 64.593 67.0409 72.593 63.0409 64.593Z" transform="matrix(1.83697e-16 1 1 -1.83697e-16 821 507)"/><path d="M1035 655 1054 636 1073 655 1054 674Z" stroke="#000000" stroke-width="2" stroke-miterlimit="8" fill="#FFFFFF" fill-rule="evenodd"/><path d="M1040 493 1059 474 1078 493 1059 512Z" stroke="#000000" stroke-width="2" stroke-miterlimit="8" fill="#FFFFFF" fill-rule="evenodd"/><path d="M990 492 1034.16 492 1034.16 494 990 494ZM1032.83 489 1040.83 493 1032.83 497Z"/><path d="M0.00226907-0.999997 40.3909-0.908353 40.3863 1.09164-0.00226907 0.999997ZM39.0643-3.91137 47.0552 0.106772 39.0462 4.08861Z" transform="matrix(1 0 0 -1 988 655.107)"/><text font-family="Times New Roman,Times New Roman_MSFontService,sans-serif" font-weight="400" font-size="12" transform="translate(998.927 513)">Toggle</text><text font-family="Times New Roman,Times New Roman_MSFontService,sans-serif" font-weight="400" font-size="12" transform="translate(998.927 527)">door button</text><text font-family="Times New Roman,Times New Roman_MSFontService,sans-serif" font-weight="400" font-size="12" transform="translate(998.927 541)">pressed</text><path d="M1-9.17378e-07 1.0001 107.776-0.999901 107.776-1 9.17378e-07ZM4.0001 106.442 0.000104987 114.442-3.9999 106.442Z" transform="matrix(1 0 0 -1 1059 474.442)"/><text font-family="Times New Roman,Times New Roman_MSFontService,sans-serif" font-weight="400" font-size="12" transform="translate(1067.9 415)">Door</text><text font-family="Times New Roman,Times New Roman_MSFontService,sans-serif" font-weight="400" font-size="12" transform="translate(1067.9 429)">currently</text><text font-family="Times New Roman,Times New Roman_MSFontService,sans-serif" font-weight="400" font-size="12" transform="translate(1067.9 443)">close</text><path d="M1003 312.5C1003 307.253 1007.25 303 1012.5 303L1106.5 303C1111.75 303 1116 307.253 1116 312.5L1116 350.5C1116 355.747 1111.75 360 1106.5 360L1012.5 360C1007.25 360 1003 355.747 1003 350.5Z" stroke="#000000" stroke-width="2" stroke-miterlimit="8" fill="#FFFFFF" fill-rule="evenodd"/><text font-family="Times New Roman,Times New Roman_MSFontService,sans-serif" font-weight="700" font-size="12" transform="translate(1016.56 322)">Send Open Door</text><text font-family="Times New Roman,Times New Roman_MSFontService,sans-serif" font-weight="700" font-size="12" transform="translate(1025.73 336)">Command to</text><text font-family="Times New Roman,Times New Roman_MSFontService,sans-serif" font-weight="700" font-size="12" transform="translate(1025.4 350)">Edge Devices</text><text font-family="Times New Roman,Times New Roman_MSFontService,sans-serif" font-weight="400" font-size="12" transform="translate(988.669 672)">Toggle</text><text font-family="Times New Roman,Times New Roman_MSFontService,sans-serif" font-weight="400" font-size="12" transform="translate(988.669 686)">alarm button</text><text font-family="Times New Roman,Times New Roman_MSFontService,sans-serif" font-weight="400" font-size="12" transform="translate(988.669 700)">pressed</text><path d="M1073 654 1117.16 654 1117.16 656 1073 656ZM1115.83 651 1123.83 655 1115.83 659Z"/><path d="M1124 636.333C1124 631.179 1128.18 627 1133.33 627L1227.67 627C1232.82 627 1237 631.179 1237 636.333L1237 673.667C1237 678.821 1232.82 683 1227.67 683L1133.33 683C1128.18 683 1124 678.821 1124 673.667Z" stroke="#000000" stroke-width="2" stroke-miterlimit="8" fill="#FFFFFF" fill-rule="evenodd"/><text font-family="Times New Roman,Times New Roman_MSFontService,sans-serif" font-weight="700" font-size="12" transform="translate(1147.21 638)">Send Disable</text><text font-family="Times New Roman,Times New Roman_MSFontService,sans-serif" font-weight="700" font-size="12" transform="translate(1163.71 652)">Alarm</text><text font-family="Times New Roman,Times New Roman_MSFontService,sans-serif" font-weight="700" font-size="12" transform="translate(1146.88 666)">Command to</text><text font-family="Times New Roman,Times New Roman_MSFontService,sans-serif" font-weight="700" font-size="12" transform="translate(1146.55 681)">Edge Devices</text><text font-family="Times New Roman,Times New Roman_MSFontService,sans-serif" font-weight="400" font-size="12" transform="translate(1074.65 674)">Alarm</text><text font-family="Times New Roman,Times New Roman_MSFontService,sans-serif" font-weight="400" font-size="12" transform="translate(1074.65 688)">currently</text><text font-family="Times New Roman,Times New Roman_MSFontService,sans-serif" font-weight="400" font-size="12" transform="translate(1074.65 702)">enable</text><text font-family="Times New Roman,Times New Roman_MSFontService,sans-serif" font-weight="400" font-size="12" transform="translate(981.702 400)">Toggle</text><text font-family="Times New Roman,Times New Roman_MSFontService,sans-serif" font-weight="400" font-size="12" transform="translate(981.702 414)">door</text><text font-family="Times New Roman,Times New Roman_MSFontService,sans-serif" font-weight="400" font-size="12" transform="translate(981.702 428)">button</text><text font-family="Times New Roman,Times New Roman_MSFontService,sans-serif" font-weight="400" font-size="12" transform="translate(981.702 443)">NOT</text><text font-family="Times New Roman,Times New Roman_MSFontService,sans-serif" font-weight="400" font-size="12" transform="translate(981.702 457)">pressed</text><path d="M0.999916-0.0129759 1.5258 40.5113-0.474033 40.5372-0.999916 0.0129759ZM4.50824 39.1391 0.612388 47.1903-3.49108 39.2429Z" transform="matrix(-1 0 0 1 821.612 422)"/><path d="M1124 559.5C1124 554.253 1128.25 550 1133.5 550L1227.5 550C1232.75 550 1237 554.253 1237 559.5L1237 597.5C1237 602.747 1232.75 607 1227.5 607L1133.5 607C1128.25 607 1124 602.747 1124 597.5Z" stroke="#000000" stroke-width="2" stroke-miterlimit="8" fill="#FFFFFF" fill-rule="evenodd"/><text font-family="Times New Roman,Times New Roman_MSFontService,sans-serif" font-weight="700" font-size="12" transform="translate(1137.71 569)">Send Open Door</text><text font-family="Times New Roman,Times New Roman_MSFontService,sans-serif" font-weight="700" font-size="12" transform="translate(1146.88 583)">Command to</text><text font-family="Times New Roman,Times New Roman_MSFontService,sans-serif" font-weight="700" font-size="12" transform="translate(1146.55 597)">Edge Devices</text><path d="M1053 635.886 1053 577 1117.06 577 1117.06 579 1054 579 1055 578 1055 635.886ZM1115.72 574 1123.72 578 1115.72 582Z"/><text font-family="Times New Roman,Times New Roman_MSFontService,sans-serif" font-weight="400" font-size="12" transform="translate(1061.94 601)">Alarm</text><text font-family="Times New Roman,Times New Roman_MSFontService,sans-serif" font-weight="400" font-size="12" transform="translate(1061.94 615)">currently</text><text font-family="Times New Roman,Times New Roman_MSFontService,sans-serif" font-weight="400" font-size="12" transform="translate(1061.94 629)">disable</text><path d="M951 574 970 555 989 574 970 593Z" stroke="#000000" stroke-width="2" stroke-miterlimit="8" fill="#FFFFFF" fill-rule="evenodd"/><path d="M635 469.333C635 464.179 639.179 460 644.333 460L738.667 460C743.821 460 748 464.179 748 469.333L748 506.667C748 511.821 743.821 516 738.667 516L644.333 516C639.179 516 635 511.821 635 506.667Z" stroke="#000000" stroke-width="2" stroke-miterlimit="8" fill="#FFFFFF" fill-rule="evenodd"/><text font-family="Times New Roman,Times New Roman_MSFontService,sans-serif" font-weight="700" font-size="12" transform="translate(653.876 478)">Disable Toggle</text><text font-family="Times New Roman,Times New Roman_MSFontService,sans-serif" font-weight="700" font-size="12" transform="translate(649.376 492)">Door and Alarm</text><text font-family="Times New Roman,Times New Roman_MSFontService,sans-serif" font-weight="700" font-size="12" transform="translate(671.71 506)">Buttons</text><path d="M1.94197e-06-1 47.3953-0.999908 47.3953 1.00009-1.94197e-06 1ZM46.0619-3.99991 54.0619 0.000104987 46.0619 4.00009Z" transform="matrix(-1 0 0 1 802.062 488)"/><text font-family="Times New Roman,Times New Roman_MSFontService,sans-serif" font-weight="400" font-size="12" transform="translate(756.926 452)">Auto</text><text font-family="Times New Roman,Times New Roman_MSFontService,sans-serif" font-weight="400" font-size="12" transform="translate(756.926 466)">control</text><text font-family="Times New Roman,Times New Roman_MSFontService,sans-serif" font-weight="400" font-size="12" transform="translate(756.926 480)">currently</text><path d="M673 403 692 384 711 403 692 422Z" stroke="#000000" stroke-width="2" stroke-miterlimit="8" fill="#FFFFFF" fill-rule="evenodd"/><path d="M801 297 820 278 839 297 820 316Z" stroke="#000000" stroke-width="2" stroke-miterlimit="8" fill="#FFFFFF" fill-rule="evenodd"/><path d="M803.467 404.239 717.664 404.017 717.669 402.017 803.472 402.239ZM718.99 407.021 711 403 719.01 399.021Z"/><text font-family="Times New Roman,Times New Roman_MSFontService,sans-serif" font-weight="400" font-size="12" transform="translate(853.029 418)">Toggle control</text><text font-family="Times New Roman,Times New Roman_MSFontService,sans-serif" font-weight="400" font-size="12" transform="translate(853.029 432)">mode button</text><text font-family="Times New Roman,Times New Roman_MSFontService,sans-serif" font-weight="400" font-size="12" transform="translate(853.029 446)">NOT pressed</text><path d="M1-2.76422e-06 1.00009 31.314-0.999913 31.314-1 2.76422e-06ZM4.00008 29.9807 0.000104987 37.9807-3.99992 29.9807Z" transform="matrix(1 0 0 -1 692 459.981)"/><path d="M0.999832-0.0183035 1.6629 36.2019-0.336764 36.2385-0.999832 0.0183035ZM4.63799 34.8139 0.785092 42.8858-3.36067 34.9603Z" transform="matrix(-1 0 0 1 970.785 512)"/><path d="M0.999864-0.0164668 1.60347 36.6346-0.396257 36.6675-0.999864 0.0164668ZM4.58111 35.2521 0.713386 43.3168-3.41781 35.3838Z" transform="matrix(1 0 0 -1 969 636.317)"/><path d="M950.695 574.754 932.247 574.754 932.247 297 933.247 298 845.667 298 845.667 296 934.247 296 934.247 573.754 933.247 572.754 950.695 572.754ZM847 301 839 297 847 293Z"/><path d="M691 383.796 691 332.898 820.626 332.898 819.626 333.898 819.626 322.667 821.626 322.667 821.626 334.898 692 334.898 693 333.898 693 383.796ZM816.626 324 820.626 316 824.626 324Z"/><path d="M1.09823e-06-1 88.9295-0.999902 88.9295 1.0001-1.09823e-06 1ZM87.5961-3.9999 95.5961 0.000104987 87.5961 4.0001Z" transform="matrix(-1 0 0 1 801.596 297)"/></g></svg>