<svg width="1280" height="720" xmlns="http://www.w3.org/2000/svg" xmlns:xlink="http://www.w3.org/1999/xlink" overflow="hidden"><g><rect x="0" y="0" width="1280" height="720" fill="#FFFFFF"/><path d="M630 36C630 25.5066 638.507 17 649 17 659.493 17 668 25.5066 668 36 668 46.4934 659.493 55 649 55 638.507 55 630 46.4934 630 36Z" stroke="#000000" stroke-width="2" stroke-miterlimit="8" fill-rule="evenodd"/><path d="M592 94.5003C592 89.2534 596.253 85 601.5 85L696.5 85C701.747 85 706 89.2534 706 94.5003L706 132.5C706 137.747 701.747 142 696.5 142L601.5 142C596.253 142 592 137.747 592 132.5Z" stroke="#000000" stroke-width="2" stroke-miterlimit="8" fill="#FFFFFF" fill-rule="evenodd"/><text font-family="Times New Roman,Times New Roman_MSFontService,sans-serif" font-weight="700" font-size="12" transform="translate(614.458 118)">Read Sensors</text><path d="M630 214 649 195 668 214 649 233Z" stroke="#000000" stroke-width="2" stroke-miterlimit="8" fill="#FFFFFF" fill-rule="evenodd"/><path d="M0.99998-0.0062944 1.1493 23.7165-0.850657 23.729-0.99998 0.0062944ZM4.14085 22.3643 0.191286 30.3893-3.85899 22.4146Z" transform="matrix(-1 0 0 1 649.191 55)"/><path d="M0.999994-0.00359331 1.16953 47.1769-0.830458 47.1841-0.999994 0.00359331ZM4.16472 45.8328 0.193491 53.8471-3.83523 45.8616Z" transform="matrix(-1 0 0 1 649.193 142)"/><path d="M650 233 650 280.18 648 280.18 648 233ZM653 278.847 649 286.847 645 278.847Z"/><path d="M591 479.5C591 474.253 595.253 470 600.5 470L695.5 470C700.747 470 705 474.253 705 479.5L705 517.5C705 522.747 700.747 527 695.5 527L600.5 527C595.253 527 591 522.747 591 517.5Z" stroke="#000000" stroke-width="2" stroke-miterlimit="8" fill="#FFFFFF" fill-rule="evenodd"/><text font-family="Times New Roman,Times New Roman_MSFontService,sans-serif" font-weight="700" font-size="12" transform="translate(619.524 504)">Open Door</text><text font-family="Times New Roman,Times New Roman_MSFontService,sans-serif" font-weight="400" font-size="12" transform="translate(580.982 208)">Manual</text><text font-family="Times New Roman,Times New Roman_MSFontService,sans-serif" font-weight="400" font-size="12" transform="translate(617.261 170)">Auto</text><path d="M630 306 649 287 668 306 649 325Z" stroke="#000000" stroke-width="2" stroke-miterlimit="8" fill="#FFFFFF" fill-rule="evenodd"/><path d="M650 325 650 372.18 648 372.18 648 325ZM653 370.847 649 378.847 645 370.847Z"/><text font-family="Times New Roman,Times New Roman_MSFontService,sans-serif" font-weight="400" font-size="12" transform="translate(611.303 353)">Bright</text><text font-family="Times New Roman,Times New Roman_MSFontService,sans-serif" font-weight="400" font-size="12" transform="translate(684.899 297)">Dark</text><path d="M0.00989207-0.999951 65.8284-0.348837 65.8086 1.65106-0.00989207 0.999951ZM64.5248-3.36188 72.4848 0.71706 64.4456 4.63773Z" transform="matrix(1 0 0 -1 668 305.717)"/><path d="M630 398 649 379 668 398 649 417Z" stroke="#000000" stroke-width="2" stroke-miterlimit="8" fill="#FFFFFF" fill-rule="evenodd"/><text font-family="Times New Roman,Times New Roman_MSFontService,sans-serif" font-weight="400" font-size="12" transform="translate(600.931 438)">Person</text><text font-family="Times New Roman,Times New Roman_MSFontService,sans-serif" font-weight="400" font-size="12" transform="translate(600.931 452)">detected</text><path d="M2.89416e-05-1 65.8841-0.998093 65.8841 1.00191-2.89416e-05 1ZM64.5509-3.99813 72.5508 0.00209974 64.5506 4.00187Z" transform="matrix(1 0 0 -1 668 398.002)"/><text font-family="Times New Roman,Times New Roman_MSFontService,sans-serif" font-weight="400" font-size="12" transform="translate(673.729 372)">Person not</text><text font-family="Times New Roman,Times New Roman_MSFontService,sans-serif" font-weight="400" font-size="12" transform="translate(673.729 386)">detected</text><path d="M740 378.5C740 373.253 744.253 369 749.5 369L844.5 369C849.747 369 854 373.253 854 378.5L854 416.5C854 421.747 849.747 426 844.5 426L749.5 426C744.253 426 740 421.747 740 416.5Z" stroke="#000000" stroke-width="2" stroke-miterlimit="8" fill="#FFFFFF" fill-rule="evenodd"/><text font-family="Times New Roman,Times New Roman_MSFontService,sans-serif" font-weight="700" font-size="12" transform="translate(768.406 402)">Close Door</text><path d="M1006 285.5C1006 280.253 1010.25 276 1015.5 276L1109.5 276C1114.75 276 1119 280.253 1119 285.5L1119 323.5C1119 328.747 1114.75 333 1109.5 333L1015.5 333C1010.25 333 1006 328.747 1006 323.5Z" stroke="#000000" stroke-width="2" stroke-miterlimit="8" fill="#FFFFFF" fill-rule="evenodd"/><text font-family="Times New Roman,Times New Roman_MSFontService,sans-serif" font-weight="700" font-size="12" transform="translate(1026.3 309)">Enable Alarm</text><path d="M334 261 430.606 261" stroke="#000000" stroke-width="2" stroke-miterlimit="8" fill="none" fill-rule="evenodd"/><path d="M349 261 349 289.615 347 289.615 347 261ZM352 288.282 348 296.282 344 288.282Z"/><path d="M511 261 511 289.615 509 289.615 509 261ZM514 288.282 510 296.282 506 288.282Z"/><path d="M431 261 527.606 261" stroke="#000000" stroke-width="2" stroke-miterlimit="8" fill="none" fill-rule="evenodd"/><path d="M0.999905-0.0137559 1.64899 47.1674-0.350824 47.1949-0.999905 0.0137559ZM4.63036 45.7929 0.740787 53.8471-3.36888 45.9029Z" transform="matrix(-1 0 0 1 648.741 417)"/><path d="M798 425.548 798 486.71 797 485.71 1062.56 485.71 1061.56 486.71 1061.56 422.667 1063.56 422.667 1063.56 486.71C1063.56 487.262 1063.11 487.71 1062.56 487.71L797 487.71C796.448 487.71 796 487.262 796 486.71L796 425.548ZM1058.56 424 1062.56 416 1066.56 424Z"/><path d="M649 526.986 649.649 574.167 647.649 574.195 647 527.014ZM652.63 572.793 648.741 580.847 644.631 572.903Z"/><path d="M592 590.5C592 585.253 596.253 581 601.5 581L695.5 581C700.747 581 705 585.253 705 590.5L705 628.5C705 633.747 700.747 638 695.5 638L601.5 638C596.253 638 592 633.747 592 628.5Z" stroke="#000000" stroke-width="2" stroke-miterlimit="8" fill="#FFFFFF" fill-rule="evenodd"/><text font-family="Times New Roman,Times New Roman_MSFontService,sans-serif" font-weight="700" font-size="12" transform="translate(615.765 607)">Send Data to</text><text font-family="Times New Roman,Times New Roman_MSFontService,sans-serif" font-weight="700" font-size="12" transform="translate(617.265 621)">Edge Server</text><path d="M911 305 929.5 286 948 305 929.5 324Z" stroke="#000000" stroke-width="2" stroke-miterlimit="8" fill="#FFFFFF" fill-rule="evenodd"/><text font-family="Times New Roman,Times New Roman_MSFontService,sans-serif" font-weight="400" font-size="12" transform="translate(938.97 351)">Person not</text><text font-family="Times New Roman,Times New Roman_MSFontService,sans-serif" font-weight="400" font-size="12" transform="translate(938.97 365)">detected</text><text font-family="Times New Roman,Times New Roman_MSFontService,sans-serif" font-weight="400" font-size="12" transform="translate(947.895 278)">Person</text><text font-family="Times New Roman,Times New Roman_MSFontService,sans-serif" font-weight="400" font-size="12" transform="translate(947.895 292)">detected</text><path d="M740 286.5C740 281.253 744.253 277 749.5 277L844.5 277C849.747 277 854 281.253 854 286.5L854 324.5C854 329.747 849.747 334 844.5 334L749.5 334C744.253 334 740 329.747 740 324.5Z" stroke="#000000" stroke-width="2" stroke-miterlimit="8" fill="#FFFFFF" fill-rule="evenodd"/><text font-family="Times New Roman,Times New Roman_MSFontService,sans-serif" font-weight="700" font-size="12" transform="translate(769.007 303)">Keep Door</text><text font-family="Times New Roman,Times New Roman_MSFontService,sans-serif" font-weight="700" font-size="12" transform="translate(779.507 317)">Closed</text><path d="M854 304 904.339 304 904.339 306 854 306ZM903.005 301 911.005 305 903.005 309Z"/><path d="M0.0175707-0.999846 50.7878-0.107639 50.7526 1.89205-0.0175707 0.999846ZM49.5073-3.1306 57.4358 1.00934 49.3667 4.86816Z" transform="matrix(1 0 0 -1 948 305.009)"/><path d="M0-1 73.3605-1C73.9128-1 74.3605-0.552285 74.3605 0L74.3605 107.462 72.3605 107.462 72.3605 0 73.3605 1 0 1ZM77.3605 106.129 73.3605 114.129 69.3605 106.129Z" transform="matrix(1.83697e-16 1 1 -1.83697e-16 929 324)"/><path d="M1044 397.5 1062.5 379 1081 397.5 1062.5 416Z" stroke="#000000" stroke-width="2" stroke-miterlimit="8" fill="#FFFFFF" fill-rule="evenodd"/><path d="M1063 333 1063 372.357 1061 372.357 1061 333ZM1066 371.023 1062 379.023 1058 371.023Z"/><path d="M0 1-24.0012 1-23.0012 0-23.0012 211.733-24.0012 210.733 369.236 210.733 369.236 212.733-24.0012 212.733C-24.5535 212.733-25.0012 212.285-25.0012 211.733L-25.0012 0C-25.0012-0.552285-24.5535-1-24.0012-1L0-1ZM367.902 207.733 375.902 211.733 367.902 215.733Z" transform="matrix(-1 0 0 1 1080.9 398)"/><path d="M630.282 215.827 558.987 215.827C558.435 215.827 557.987 215.379 557.987 214.827L557.987 153 558.987 154 431 154 432 153 432 170.333 430 170.333 430 153C430 152.448 430.448 152 431 152L558.987 152C559.539 152 559.987 152.448 559.987 153L559.987 214.827 558.987 213.827 630.282 213.827ZM435 169 431 177 427 169Z"/><path d="M374 186.333C374 181.179 378.179 177 383.333 177L477.667 177C482.821 177 487 181.179 487 186.333L487 223.667C487 228.821 482.821 233 477.667 233L383.333 233C378.179 233 374 228.821 374 223.667Z" stroke="#000000" stroke-width="2" stroke-miterlimit="8" fill="#FFFFFF" fill-rule="evenodd"/><text font-family="Times New Roman,Times New Roman_MSFontService,sans-serif" font-weight="700" font-size="12" transform="translate(408.751 195)">Wait for</text><text font-family="Times New Roman,Times New Roman_MSFontService,sans-serif" font-weight="700" font-size="12" transform="translate(389.418 209)">Command from</text><text font-family="Times New Roman,Times New Roman_MSFontService,sans-serif" font-weight="700" font-size="12" transform="translate(399.085 223)">Edge Server</text><path d="M432 233 432 252.63 430 252.63 430 233ZM435 251.297 431 259.297 427 251.297Z"/><path d="M329 316 348 297 367 316 348 335Z" stroke="#000000" stroke-width="2" stroke-miterlimit="8" fill="#FFFFFF" fill-rule="evenodd"/><path d="M491 316 509.5 297 528 316 509.5 335Z" stroke="#000000" stroke-width="2" stroke-miterlimit="8" fill="#FFFFFF" fill-rule="evenodd"/><path d="M0.999889-0.0148878 1.92048 61.8133-0.0792989 61.843-0.999889 0.0148878ZM4.9003 60.4354 1.01984 68.4941-3.09882 60.5545Z" transform="matrix(-1 0 0 1 348.02 335)"/><text font-family="Times New Roman,Times New Roman_MSFontService,sans-serif" font-weight="400" font-size="12" transform="translate(469.599 369)">Enable</text><text font-family="Times New Roman,Times New Roman_MSFontService,sans-serif" font-weight="400" font-size="12" transform="translate(469.599 383)">alarm</text><path d="M510 335 510.005 407.605 508.005 407.605 508 335ZM513.005 406.271 509.005 414.272 505.005 406.272Z"/><text font-family="Times New Roman,Times New Roman_MSFontService,sans-serif" font-weight="400" font-size="12" transform="translate(311.965 359)">Open</text><text font-family="Times New Roman,Times New Roman_MSFontService,sans-serif" font-weight="400" font-size="12" transform="translate(311.965 373)">door</text><path d="M290 413.333C290 408.179 294.179 404 299.333 404L394.667 404C399.821 404 404 408.179 404 413.333L404 450.667C404 455.821 399.821 460 394.667 460L299.333 460C294.179 460 290 455.821 290 450.667Z" stroke="#000000" stroke-width="2" stroke-miterlimit="8" fill="#FFFFFF" fill-rule="evenodd"/><text font-family="Times New Roman,Times New Roman_MSFontService,sans-serif" font-weight="700" font-size="12" transform="translate(318.636 437)">Open Door</text><path d="M0.00441103-0.99999 48.3652-0.786667 48.3564 1.21331-0.00441103 0.99999ZM47.0451-3.79252 55.0274 0.24273 47.0098 4.2074Z" transform="matrix(-1 0 0 1 329.027 316)"/><text font-family="Times New Roman,Times New Roman_MSFontService,sans-serif" font-weight="400" font-size="12" transform="translate(291.709 292)">Close</text><text font-family="Times New Roman,Times New Roman_MSFontService,sans-serif" font-weight="400" font-size="12" transform="translate(291.709 306)">door</text><path d="M161 297.5C161 292.253 165.253 288 170.5 288L264.5 288C269.747 288 274 292.253 274 297.5L274 335.5C274 340.747 269.747 345 264.5 345L170.5 345C165.253 345 161 340.747 161 335.5Z" stroke="#000000" stroke-width="2" stroke-miterlimit="8" fill="#FFFFFF" fill-rule="evenodd"/><text font-family="Times New Roman,Times New Roman_MSFontService,sans-serif" font-weight="700" font-size="12" transform="translate(189.038 321)">Close Door</text><path d="M453 423.5C453 418.253 457.253 414 462.5 414L556.5 414C561.747 414 566 418.253 566 423.5L566 461.5C566 466.747 561.747 471 556.5 471L462.5 471C457.253 471 453 466.747 453 461.5Z" stroke="#000000" stroke-width="2" stroke-miterlimit="8" fill="#FFFFFF" fill-rule="evenodd"/><text font-family="Times New Roman,Times New Roman_MSFontService,sans-serif" font-weight="700" font-size="12" transform="translate(473.317 447)">Enable Alarm</text><path d="M0-1 52.9691-1C53.5214-1 53.9691-0.552285 53.9691 0L53.9691 188.714 52.9691 187.714 80.0714 187.714 80.0714 189.714 52.9691 189.714C52.4168 189.714 51.9691 189.266 51.9691 188.714L51.9691 0 52.9691 1 0 1ZM78.7381 184.714 86.7381 188.714 78.7381 192.714Z" transform="matrix(-1 1.22465e-16 1.22465e-16 1 490.738 316)"/><path d="M290 486.333C290 481.179 294.179 477 299.333 477L394.667 477C399.821 477 404 481.179 404 486.333L404 523.667C404 528.821 399.821 533 394.667 533L299.333 533C294.179 533 290 528.821 290 523.667Z" stroke="#000000" stroke-width="2" stroke-miterlimit="8" fill="#FFFFFF" fill-rule="evenodd"/><text font-family="Times New Roman,Times New Roman_MSFontService,sans-serif" font-weight="700" font-size="12" transform="translate(309.983 510)">Disable Alarm</text><text font-family="Times New Roman,Times New Roman_MSFontService,sans-serif" font-weight="400" font-size="12" transform="translate(395.21 367)">Disable</text><text font-family="Times New Roman,Times New Roman_MSFontService,sans-serif" font-weight="400" font-size="12" transform="translate(395.21 381)">alarm</text><path d="M198 432 217 413 236 432 217 451Z" stroke="#000000" stroke-width="2" stroke-miterlimit="8" fill="#FFFFFF" fill-rule="evenodd"/><path d="M0.999988-0.0048054 1.29593 61.58-0.704045 61.5896-0.999988 0.0048054ZM4.28949 60.2322 0.327979 68.2513-3.71042 60.2706Z" transform="matrix(-1 0 0 1 217.328 345)"/><path d="M1.9322e-06-1 47.6689-0.999908 47.6689 1.00009-1.9322e-06 1ZM46.3355-3.99991 54.3355 0.000104987 46.3355 4.00009Z" transform="matrix(-1 0 0 1 290.336 432)"/><path d="M328 578 347 559 366 578 347 597Z" stroke="#000000" stroke-width="2" stroke-miterlimit="8" fill="#FFFFFF" fill-rule="evenodd"/><path d="M1-0.000546729 1.01042 19.0644-0.989576 19.0655-1 0.000546729ZM4.00969 17.7295 0.0140682 25.7317-3.9903 17.7338Z" transform="matrix(-1 0 0 1 347.014 533)"/><path d="M510.45 471 510.45 577.828C510.45 578.38 510.003 578.828 509.45 578.828L372.667 578.828 372.667 576.828 509.45 576.828 508.45 577.828 508.45 471ZM374 581.828 366 577.828 374 573.828Z"/><path d="M198 578 217 559 236 578 217 597Z" stroke="#000000" stroke-width="2" stroke-miterlimit="8" fill="#FFFFFF" fill-rule="evenodd"/><path d="M218 451 218 552.49 216 552.49 216 451ZM221 551.156 217 559.156 213 551.156Z"/><path d="M1.13954e-06-1 85.4642-0.999903 85.4642 1.0001-1.13954e-06 1ZM84.1308-3.9999 92.1308 0.000104987 84.1308 4.0001Z" transform="matrix(-1 0 0 1 328.131 578)"/><path d="M0-1 12.5372-1C13.0895-1 13.5372-0.552285 13.5372 0L13.5372 368.196 11.5372 368.196 11.5372 0 12.5372 1 0 1ZM16.5372 366.862 12.5372 374.862 8.53722 366.862Z" transform="matrix(1.83697e-16 1 1 -1.83697e-16 217 597)"/><path d="M650 637.354 650 661.353 649 660.353 1183.49 660.353 1182.49 661.353 1182.49 113 1183.49 114 712.553 114 712.553 112 1183.49 112C1184.04 112 1184.49 112.448 1184.49 113L1184.49 661.353C1184.49 661.906 1184.04 662.353 1183.49 662.353L649 662.353C648.448 662.353 648 661.906 648 661.353L648 637.354ZM713.886 117 705.886 113 713.886 109Z"/></g></svg>