<svg width="1280" height="720" xmlns="http://www.w3.org/2000/svg" xmlns:xlink="http://www.w3.org/1999/xlink" overflow="hidden"><g><rect x="0" y="0" width="1280" height="720" fill="#FFFFFF"/><path d="M65 609.167C65 599.686 72.6857 592 82.1665 592L1023.83 592C1033.31 592 1041 599.686 1041 609.167L1041 677.833C1041 687.314 1033.31 695 1023.83 695L82.1665 695C72.6857 695 65 687.314 65 677.833Z" stroke="#196B24" stroke-width="2" stroke-miterlimit="8" fill="#C2F1C8" fill-rule="evenodd"/><path d="M65 609.167C65 599.686 72.6859 592 82.1669 592L219.833 592C229.314 592 237 599.686 237 609.167L237 677.833C237 687.314 229.314 695 219.833 695L82.1669 695C72.6859 695 65 687.314 65 677.833Z" stroke="#196B24" stroke-width="2" stroke-miterlimit="8" fill="#FFFFFF" fill-rule="evenodd"/><text font-family="Times New Roman,Times New Roman_MSFontService,sans-serif" font-weight="700" font-size="27" transform="translate(87.2105 654)">User Layer</text><path d="M65 401.501C65 382.446 80.4464 367 99.5005 367L1006.5 367C1025.55 367 1041 382.446 1041 401.501L1041 539.499C1041 558.554 1025.55 574 1006.5 574L99.5005 574C80.4464 574 65 558.554 65 539.499Z" stroke="#E97132" stroke-width="2" stroke-miterlimit="8" fill="#FBE3D6" fill-rule="evenodd"/><path d="M65 395.667C65 379.835 77.8347 367 93.6672 367L208.333 367C224.165 367 237 379.835 237 395.667L237 545.333C237 561.165 224.165 574 208.333 574L93.6672 574C77.8347 574 65 561.165 65 545.333Z" stroke="#E97132" stroke-width="2" stroke-miterlimit="8" fill="#FFFFFF" fill-rule="evenodd"/><text font-family="Times New Roman,Times New Roman_MSFontService,sans-serif" font-weight="700" font-size="27" transform="translate(84.4705 465)">Application</text><text font-family="Times New Roman,Times New Roman_MSFontService,sans-serif" font-weight="700" font-size="27" transform="translate(116.97 497)">Layer</text><path d="M65 176.501C65 157.446 80.4464 142 99.5005 142L1006.5 142C1025.55 142 1041 157.446 1041 176.501L1041 314.499C1041 333.554 1025.55 349 1006.5 349L99.5005 349C80.4464 349 65 333.554 65 314.499Z" stroke="#156082" stroke-width="2" stroke-miterlimit="8" fill="#DCEAF7" fill-rule="evenodd"/><path d="M65 170.667C65 154.835 77.8347 142 93.6672 142L208.333 142C224.165 142 237 154.835 237 170.667L237 320.333C237 336.165 224.165 349 208.333 349L93.6672 349C77.8347 349 65 336.165 65 320.333Z" stroke="#156082" stroke-width="2" stroke-miterlimit="8" fill="#FFFFFF" fill-rule="evenodd"/><text font-family="Times New Roman,Times New Roman_MSFontService,sans-serif" font-weight="700" font-size="27" transform="translate(84.7204 255)">Edg</text><text font-family="Times New Roman,Times New Roman_MSFontService,sans-serif" font-weight="700" font-size="27" transform="translate(130.72 255)">e</text><text font-family="Times New Roman,Times New Roman_MSFontService,sans-serif" font-weight="700" font-size="27" transform="translate(149.22 255)">Layer</text><path d="M65 30.6672C65 20.3576 73.3576 12 83.6672 12L1022.33 12C1032.64 12 1041 20.3576 1041 30.6672L1041 105.333C1041 115.642 1032.64 124 1022.33 124L83.6672 124C73.3576 124 65 115.642 65 105.333Z" stroke="#000000" stroke-width="2" stroke-miterlimit="8" fill="#FFFFFF" fill-rule="evenodd"/><path d="M65 30.667C65 20.3575 73.3575 12 83.667 12L218.333 12C228.642 12 237 20.3575 237 30.667L237 105.333C237 115.642 228.642 124 218.333 124L83.667 124C73.3575 124 65 115.642 65 105.333Z" stroke="#000000" stroke-width="2" stroke-miterlimit="8" fill="#FFFFFF" fill-rule="evenodd"/><text font-family="Times New Roman,Times New Roman_MSFontService,sans-serif" font-weight="700" font-size="27" transform="translate(103.72 62)">Physical</text><text font-family="Times New Roman,Times New Roman_MSFontService,sans-serif" font-weight="700" font-size="27" transform="translate(116.967 94)">Layer</text><path d="M661 41.6669C661 34.6712 666.671 29 673.667 29L799.333 29C806.329 29 812 34.6712 812 41.6669L812 92.3331C812 99.3288 806.329 105 799.333 105L673.667 105C666.671 105 661 99.3288 661 92.3331Z" stroke="#000000" stroke-width="2" stroke-miterlimit="8" fill="#FFFFFF" fill-rule="evenodd"/><text font-family="Times New Roman,Times New Roman_MSFontService,sans-serif" font-weight="700" font-size="16" transform="translate(676.076 53)">Ultrasonic</text><text font-family="Times New Roman,Times New Roman_MSFontService,sans-serif" font-weight="700" font-size="16" transform="translate(751.243 53)">Sensor</text><text font-family="Times New Roman,Times New Roman_MSFontService,sans-serif" font-weight="400" font-size="16" transform="translate(702.91 73)">(Customer</text><text font-family="Times New Roman,Times New Roman_MSFontService,sans-serif" font-weight="400" font-size="16" transform="translate(702.83 92)">Detection)</text><path d="M864 42.5003C864 35.5966 869.597 30 876.5 30L1003.5 30C1010.4 30 1016 35.5966 1016 42.5003L1016 92.4997C1016 99.4034 1010.4 105 1003.5 105L876.5 105C869.597 105 864 99.4034 864 92.4997Z" stroke="#000000" stroke-width="2" stroke-miterlimit="8" fill="#FFFFFF" fill-rule="evenodd"/><text font-family="Times New Roman,Times New Roman_MSFontService,sans-serif" font-weight="700" font-size="16" transform="translate(894.325 54)">Photoresistor</text><text font-family="Times New Roman,Times New Roman_MSFontService,sans-serif" font-weight="400" font-size="16" transform="translate(903.098 74)">(Bright</text><text font-family="Times New Roman,Times New Roman_MSFontService,sans-serif" font-weight="400" font-size="16" transform="translate(949.432 74)">ness</text><text font-family="Times New Roman,Times New Roman_MSFontService,sans-serif" font-weight="400" font-size="16" transform="translate(906.098 93)">Detection)</text><path d="M255 41.6669C255 34.6712 260.671 29 267.667 29L393.333 29C400.329 29 406 34.6712 406 41.6669L406 92.3331C406 99.3288 400.329 105 393.333 105L267.667 105C260.671 105 255 99.3288 255 92.3331Z" stroke="#000000" stroke-width="2" stroke-miterlimit="8" fill="#FFFFFF" fill-rule="evenodd"/><text font-family="Times New Roman,Times New Roman_MSFontService,sans-serif" font-weight="700" font-size="16" transform="translate(313.786 63)">LED</text><text font-family="Times New Roman,Times New Roman_MSFontService,sans-serif" font-weight="400" font-size="16" transform="translate(273.366 83)">(Alarm Indicator)</text><path d="M458 41.6669C458 34.6712 463.671 29 470.667 29L596.333 29C603.329 29 609 34.6712 609 41.6669L609 92.3331C609 99.3288 603.329 105 596.333 105L470.667 105C463.671 105 458 99.3288 458 92.3331Z" stroke="#000000" stroke-width="2" stroke-miterlimit="8" fill="#FFFFFF" fill-rule="evenodd"/><text font-family="Times New Roman,Times New Roman_MSFontService,sans-serif" font-weight="700" font-size="16" transform="translate(490.055 63)">Servo Motor</text><text font-family="Times New Roman,Times New Roman_MSFontService,sans-serif" font-weight="400" font-size="16" transform="translate(485.221 83)">(Doo</text><text font-family="Times New Roman,Times New Roman_MSFontService,sans-serif" font-weight="400" font-size="16" transform="translate(518.055 83)">r Control)</text><path d="M564 165.5C564 158.597 569.597 153 576.5 153L703.5 153C710.403 153 716 158.597 716 165.5L716 215.5C716 222.403 710.403 228 703.5 228L576.5 228C569.597 228 564 222.403 564 215.5Z" stroke="#156082" stroke-width="2" stroke-miterlimit="8" fill="#FFFFFF" fill-rule="evenodd"/><text font-family="Times New Roman,Times New Roman_MSFontService,sans-serif" font-weight="700" font-size="16" transform="translate(589.087 186)">ELEGOO Uno</text><text font-family="Times New Roman,Times New Roman_MSFontService,sans-serif" font-weight="400" font-size="16" transform="translate(583.833 206)">(Microcontroller)</text><path d="M564 265.667C564 258.671 569.671 253 576.667 253L703.333 253C710.329 253 716 258.671 716 265.667L716 316.333C716 323.329 710.329 329 703.333 329L576.667 329C569.671 329 564 323.329 564 316.333Z" stroke="#156082" stroke-width="2" stroke-miterlimit="8" fill="#FFFFFF" fill-rule="evenodd"/><text font-family="Times New Roman,Times New Roman_MSFontService,sans-serif" font-weight="700" font-size="16" transform="translate(594.417 287)">Raspberry Pi</text><text font-family="Times New Roman,Times New Roman_MSFontService,sans-serif" font-weight="400" font-size="16" transform="translate(600.583 307)">Edge Server</text><path d="M564 395.667C564 388.671 569.671 383 576.667 383L703.333 383C710.329 383 716 388.671 716 395.667L716 446.333C716 453.329 710.329 459 703.333 459L576.667 459C569.671 459 564 453.329 564 446.333Z" stroke="#E97132" stroke-width="2" stroke-miterlimit="8" fill="#FFFFFF" fill-rule="evenodd"/><text font-family="Times New Roman,Times New Roman_MSFontService,sans-serif" font-weight="700" font-size="16" transform="translate(612.417 417)">MySQL</text><text font-family="Times New Roman,Times New Roman_MSFontService,sans-serif" font-weight="400" font-size="16" transform="translate(610.583 437)">Database</text><path d="M338 493.667C338 486.671 343.671 481 350.667 481L477.333 481C484.329 481 490 486.671 490 493.667L490 544.333C490 551.329 484.329 557 477.333 557L350.667 557C343.671 557 338 551.329 338 544.333Z" stroke="#E97132" stroke-width="2" stroke-miterlimit="8" fill="#FFFFFF" fill-rule="evenodd"/><text font-family="Times New Roman,Times New Roman_MSFontService,sans-serif" font-weight="700" font-size="16" transform="translate(353.102 505)">Flask Web Server</text><text font-family="Times New Roman,Times New Roman_MSFontService,sans-serif" font-weight="400" font-size="16" transform="translate(357.435 525)">API and Backend</text><text font-family="Times New Roman,Times New Roman_MSFontService,sans-serif" font-weight="400" font-size="16" transform="translate(397.855 544)">logic</text><path d="M790 492.667C790 485.671 795.671 480 802.667 480L929.333 480C936.329 480 942 485.671 942 492.667L942 543.333C942 550.329 936.329 556 929.333 556L802.667 556C795.671 556 790 550.329 790 543.333Z" stroke="#E97132" stroke-width="2" stroke-miterlimit="8" fill="#FFFFFF" fill-rule="evenodd"/><text font-family="Times New Roman,Times New Roman_MSFontService,sans-serif" font-weight="700" font-size="16" transform="translate(829.151 495)">JavaScript</text><text font-family="Times New Roman,Times New Roman_MSFontService,sans-serif" font-weight="400" font-size="16" transform="translate(837.151 515)">Frontend</text><text font-family="Times New Roman,Times New Roman_MSFontService,sans-serif" font-weight="400" font-size="16" transform="translate(822.065 534)">asynchronous</text><text font-family="Times New Roman,Times New Roman_MSFontService,sans-serif" font-weight="400" font-size="16" transform="translate(842.898 553)">request</text><path d="M564 492.667C564 485.671 569.671 480 576.667 480L703.333 480C710.329 480 716 485.671 716 492.667L716 543.333C716 550.329 710.329 556 703.333 556L576.667 556C569.671 556 564 550.329 564 543.333Z" stroke="#E97132" stroke-width="2" stroke-miterlimit="8" fill="#FFFFFF" fill-rule="evenodd"/><text font-family="Times New Roman,Times New Roman_MSFontService,sans-serif" font-weight="700" font-size="16" transform="translate(598.667 504)">HTML/CSS</text><text font-family="Times New Roman,Times New Roman_MSFontService,sans-serif" font-weight="400" font-size="16" transform="translate(611.087 524)">Frontend</text><text font-family="Times New Roman,Times New Roman_MSFontService,sans-serif" font-weight="400" font-size="16" transform="translate(600.753 543)">presentation</text><path d="M564 616.5C564 609.597 569.597 604 576.5 604L703.5 604C710.403 604 716 609.597 716 616.5L716 666.5C716 673.403 710.403 679 703.5 679L576.5 679C569.597 679 564 673.403 564 666.5Z" stroke="#196B24" stroke-width="2" stroke-miterlimit="8" fill="#FFFFFF" fill-rule="evenodd"/><text font-family="Times New Roman,Times New Roman_MSFontService,sans-serif" font-weight="700" font-size="16" transform="translate(590 647)">System</text><text font-family="Times New Roman,Times New Roman_MSFontService,sans-serif" font-weight="700" font-size="16" transform="translate(642.833 647)">Owne</text><text font-family="Times New Roman,Times New Roman_MSFontService,sans-serif" font-weight="700" font-size="16" transform="translate(682.833 647)">r</text><path d="M640 124 640 142.136" stroke="#000000" stroke-width="2" stroke-linejoin="round" stroke-miterlimit="10" stroke-dasharray="2 2" fill="none" fill-rule="evenodd"/><path d="M640 349 640 367.136" stroke="#000000" stroke-width="2" stroke-miterlimit="8" stroke-dasharray="2 2" fill="none" fill-rule="evenodd"/><path d="M640 574 640 591.941" stroke="#000000" stroke-width="2" stroke-miterlimit="8" stroke-dasharray="2 2" fill="none" fill-rule="evenodd"/><path d="M1-4.14795e-06 1.0001 23.3306-0.999903 23.3306-1 4.14795e-06ZM5.53051 15.8344 0.000105059 25.3152-5.53038 15.8344C-5.80866 15.3574-5.64753 14.7451-5.17048 14.4668-4.69343 14.1885-4.08111 14.3496-3.80283 14.8267L0.863874 22.8267-0.863684 22.8267 3.80295 14.8267C4.08123 14.3496 4.69354 14.1885 5.1706 14.4668 5.64765 14.745 5.80879 15.3573 5.53051 15.8344Z" transform="matrix(-1 0 0 1 640 228)"/><text font-family="Times New Roman,Times New Roman_MSFontService,sans-serif" font-weight="400" font-size="11" transform="translate(649.6 245)">Serial Communication</text></g></svg>